# xmcd
#
# Track frame offsets: 
#        150
#        21827
#        38688
#        60915
#        84087
#        104079
#        126939
#        148263
#        170680
#        187702
#
# Disc length: 2813 seconds
#
# Revision: 4
# Processed by: cddbd v1.5.2PL0 Copyright (c) Steve Scherf et al.
# Submitted via: ExactAudioCopyFreeDBPlugin 1.0
#
DISCID=7e0afb0a
DTITLE=ALI PROJECT - Grand Finale
DYEAR=2007
DGENRE=JPop
TTITLE0=月蝕グランギニョル (Orchestral Arrange)
TTITLE1=恋せよ乙女 (Orchestral Arrange)
TTITLE2=聖少女領域 (Orchestral Arrange)
TTITLE3=オフェリア遺文 (Orchestral Arrange)
TTITLE4=人生美味礼讃 (Orchestral Arrange)
TTITLE5=闇の翼ですべてをつつむ夜のためのアリア (Orchestral Arrange)
TTITLE6=愛と誠 (Orchestral Arrange)
TTITLE7=戦争と平和 (Orchestral Arrange)
TTITLE8=Arabesque Romanesque（instrument）(Orchestral Arrange)
TTITLE9=Nocturnal （Chopin）
EXTD=YEAR: 2007
EXTT0=
EXTT1=
EXTT2=
EXTT3=
EXTT4=
EXTT5=
EXTT6=
EXTT7=
EXTT8=
EXTT9=
PLAYORDER=
